<?xml version="1.0" standalone="no"?>
<!DOCTYPE svg PUBLIC "-//W3C//DTD SVG 20010904//EN"
 "http://www.w3.org/TR/2001/REC-SVG-20010904/DTD/svg10.dtd">
<svg version="1.0" xmlns="http://www.w3.org/2000/svg"
 width="956.000000pt" height="956.000000pt" viewBox="0 0 956.000000 956.000000"
 preserveAspectRatio="xMidYMid meet">
<metadata>
Created by potrace 1.14, written by Peter Selinger 2001-2017
</metadata>
<g transform="translate(0.000000,956.000000) scale(0.100000,-0.100000)"
fill="#000000" stroke="none">
<path d="M7379 8355 c-2 -1 -26 -5 -54 -8 -27 -3 -65 -10 -82 -16 -18 -5 -33
-8 -33 -5 0 3 -9 0 -21 -6 -11 -6 -29 -13 -39 -15 -51 -10 -200 -92 -284 -157
-43 -33 -167 -157 -196 -196 -14 -19 -29 -39 -35 -45 -5 -7 -23 -32 -39 -57
-16 -25 -37 -57 -48 -72 -10 -15 -18 -32 -18 -38 0 -5 -4 -10 -10 -10 -5 0
-10 -6 -10 -13 0 -7 -13 -37 -28 -67 -29 -57 -61 -133 -67 -160 -2 -8 -12 -42
-23 -75 -11 -33 -25 -85 -32 -115 -7 -30 -14 -58 -16 -61 -7 -12 -483 117
-576 155 -18 8 -37 15 -43 16 -13 3 -17 5 -100 35 -38 14 -77 27 -85 29 -19 5
-95 34 -137 52 -17 8 -34 14 -37 14 -8 0 -288 111 -348 138 -24 11 -74 31
-113 46 -38 15 -79 31 -90 36 -30 12 -89 35 -95 36 -3 0 -36 11 -75 23 -217
72 -467 100 -675 76 -116 -13 -109 -12 -199 -30 -13 -2 -49 -12 -80 -21 -31
-9 -63 -18 -71 -20 -88 -20 -317 -126 -385 -178 -177 -137 -339 -365 -400
-566 -9 -30 -19 -62 -22 -70 -4 -8 -7 -24 -9 -35 -1 -11 -7 -51 -12 -89 -9
-67 -8 -186 1 -237 3 -15 0 -26 -6 -26 -7 0 -31 -3 -54 -7 -23 -4 -55 -9 -70
-11 -15 -2 -82 -13 -148 -25 -66 -12 -134 -23 -151 -24 -45 -5 -102 -46 -122
-87 l-17 -36 -105 -2 c-138 -2 -228 -11 -325 -31 -33 -7 -64 -13 -70 -15 -54
-11 -139 -38 -192 -61 -17 -8 -38 -14 -46 -14 -8 0 -20 -7 -27 -15 -7 -8 -17
-15 -22 -15 -9 0 -58 -23 -108 -51 -49 -27 -166 -109 -198 -139 -18 -16 -35
-30 -37 -30 -7 0 -108 -105 -155 -160 -25 -30 -64 -74 -87 -98 -23 -24 -54
-58 -70 -75 -56 -63 -170 -227 -164 -236 2 -2 -2 -7 -7 -10 -25 -16 -121 -252
-138 -341 -3 -13 -14 -61 -24 -106 -21 -88 -29 -131 -36 -179 -3 -16 -6 -39
-8 -50 -1 -11 -6 -47 -10 -80 -4 -33 -10 -71 -12 -85 -25 -151 -19 -583 11
-795 3 -27 8 -68 10 -90 3 -22 6 -49 9 -60 2 -11 7 -42 10 -69 4 -27 9 -52 11
-55 1 -3 6 -22 9 -41 9 -57 17 -93 27 -135 5 -22 11 -49 13 -60 5 -31 16 -83
38 -175 22 -94 26 -110 33 -141 2 -11 7 -29 10 -39 3 -10 8 -27 10 -37 4 -16
23 -91 29 -118 2 -5 6 -17 9 -25 3 -8 9 -28 13 -45 10 -39 8 -32 27 -100 10
-33 20 -66 22 -73 3 -7 5 -16 6 -20 0 -4 5 -15 11 -25 5 -10 11 -28 14 -40 9
-47 86 -200 149 -296 45 -68 141 -175 190 -211 42 -31 102 -58 150 -68 54 -11
119 -11 130 0 4 4 13 4 20 2 7 -3 37 7 66 22 30 15 59 29 64 30 6 1 27 4 48 8
94 15 191 97 244 207 31 63 54 115 59 134 2 6 10 35 19 65 8 30 17 69 20 85 3
17 10 53 15 80 32 178 46 620 27 900 -9 131 -17 223 -20 238 -3 19 90 12 157
-12 127 -44 292 -173 382 -296 16 -22 32 -42 35 -45 25 -21 189 -324 189 -350
0 -6 5 -10 12 -10 6 0 9 -3 6 -6 -4 -3 4 -29 16 -57 32 -73 166 -474 182 -542
3 -14 43 -125 54 -150 5 -11 24 -58 42 -105 99 -259 243 -487 370 -586 55 -43
162 -84 224 -86 32 -1 129 19 154 32 8 5 31 11 50 14 20 3 52 12 73 21 20 8
37 13 37 10 0 -13 129 84 161 120 56 64 123 171 136 220 1 6 16 48 33 95 16
47 30 87 29 90 0 3 5 25 10 50 13 55 20 93 26 145 3 22 8 57 11 78 13 85 16
159 19 562 2 231 6 454 10 495 4 41 8 93 10 115 2 22 4 40 5 40 1 0 3 12 5 26
9 65 39 203 59 264 1 6 6 24 11 40 4 17 11 35 15 40 4 6 13 26 20 45 25 63
100 176 128 192 34 20 128 32 137 18 6 -10 40 -137 50 -185 6 -30 85 -287 95
-310 5 -11 16 -40 24 -65 69 -214 227 -558 307 -672 10 -14 19 -29 19 -32 0
-3 8 -14 18 -25 9 -10 27 -31 39 -47 64 -85 196 -194 236 -194 7 0 17 -4 23
-9 13 -14 101 -19 153 -9 53 10 224 90 265 125 78 65 161 214 191 343 2 8 8
30 14 49 6 18 10 36 9 40 0 3 1 8 2 11 15 40 27 190 16 208 -4 7 -3 12 1 12 5
0 8 33 7 73 -1 39 -3 72 -3 72 -1 0 -3 47 -6 105 -2 58 -7 132 -11 165 -3 33
-7 84 -8 112 0 29 -3 53 -6 53 -3 0 -6 26 -7 58 -1 31 -4 71 -6 87 -2 17 -7
59 -11 95 -4 36 -9 76 -10 90 -2 14 -7 50 -10 80 -4 30 -14 102 -22 160 -9 58
-17 119 -18 135 -2 17 -6 39 -9 50 -4 11 -9 40 -11 65 -3 25 -7 55 -10 67 -2
11 -8 43 -12 70 -3 26 -9 57 -11 68 -3 11 -6 27 -7 35 -2 8 -6 29 -9 45 -4 17
-9 39 -11 50 -2 11 -9 40 -16 65 -7 25 -13 50 -14 55 -17 79 -80 262 -130 380
-22 54 -138 287 -159 320 -30 49 -73 122 -86 148 -8 15 -18 27 -23 27 -4 0 -8
6 -8 13 0 7 -9 23 -20 35 -11 12 -20 26 -20 31 0 6 -39 51 -87 101 -71 75
-152 142 -298 248 -33 24 -188 101 -235 117 -3 1 -18 8 -35 15 -16 8 -34 14
-40 15 -5 0 -23 6 -40 12 -16 6 -43 15 -60 19 -16 4 -34 8 -40 10 -42 10 -94
19 -180 30 -66 9 -257 10 -310 2 -27 -4 -68 -9 -90 -12 -76 -10 -149 -25 -200
-41 -22 -7 -73 -23 -113 -35 l-73 -23 -32 30 c-28 26 -110 58 -126 48 -3 -1
-26 -6 -51 -9 -25 -3 -56 -8 -70 -11 -25 -6 -38 -8 -120 -20 -25 -3 -52 -8
-60 -10 -8 -2 -39 -7 -67 -10 -29 -4 -66 -10 -82 -15 -49 -14 -55 -2 -54 107
1 101 3 118 23 192 15 56 80 205 91 209 5 2 9 8 9 14 0 11 47 80 80 118 97
111 150 153 259 205 68 33 152 65 167 65 8 0 14 4 14 10 0 5 3 9 8 8 11 -2 85
14 102 22 8 4 34 10 58 14 24 3 47 8 51 10 10 7 181 20 241 20 162 -2 307 -29
483 -88 104 -35 461 -176 572 -226 135 -61 761 -272 875 -295 8 -2 44 -11 80
-20 36 -9 74 -19 85 -21 11 -2 31 -6 45 -10 14 -3 30 -6 37 -6 11 -1 26 -48
14 -48 -3 0 -5 -19 -4 -42 1 -24 2 -43 3 -43 1 0 3 -42 5 -93 2 -51 6 -105 9
-120 3 -15 8 -47 12 -72 7 -49 12 -75 14 -75 1 0 4 -13 6 -30 16 -106 112
-332 196 -461 58 -91 74 -110 178 -214 116 -118 165 -156 338 -264 70 -44 211
-112 333 -161 63 -25 123 -50 134 -55 11 -5 31 -12 45 -15 14 -4 39 -13 55
-20 17 -8 51 -20 76 -29 201 -65 371 -152 559 -283 75 -53 246 -223 300 -299
75 -105 194 -309 195 -334 0 -3 8 -26 19 -50 30 -72 33 -81 54 -155 25 -88 39
-145 51 -215 9 -50 13 -78 27 -215 5 -54 5 -323 0 -355 -3 -14 -8 -52 -11 -85
-4 -33 -8 -75 -10 -93 -2 -18 -6 -41 -9 -50 -3 -9 -8 -33 -11 -52 -3 -19 -13
-60 -21 -90 -8 -30 -17 -66 -20 -79 -10 -48 -77 -216 -111 -280 -60 -111 -98
-162 -191 -256 -105 -107 -204 -177 -344 -244 -89 -43 -258 -104 -258 -94 0 3
-6 0 -13 -6 -8 -6 -16 -8 -20 -5 -3 3 -14 1 -24 -4 -10 -6 -43 -13 -73 -17
-30 -4 -66 -9 -80 -12 -123 -19 -319 -18 -443 2 -198 32 -379 165 -533 391
-59 86 -129 286 -136 386 -2 21 -5 38 -8 38 -9 0 -4 252 5 290 5 19 9 42 10
50 8 63 64 185 116 252 16 20 29 40 29 43 0 14 123 127 173 159 107 68 255 97
321 63 30 -16 68 -69 72 -102 1 -11 3 -20 4 -20 1 0 3 -17 4 -38 1 -36 0 -37
-34 -37 -65 0 -86 -29 -105 -145 -4 -22 -9 -49 -10 -60 -3 -17 -11 -58 -30
-155 -3 -14 -8 -41 -11 -60 -4 -19 -8 -44 -11 -55 -2 -11 -6 -36 -10 -55 -13
-69 -8 -112 17 -132 22 -18 22 -21 11 -86 -18 -106 -21 -126 -26 -139 -4 -11
13 -19 58 -29 4 -1 8 -2 10 -3 1 -2 13 -4 27 -6 14 -2 39 -6 55 -10 17 -4 37
-8 45 -9 8 -1 25 -6 37 -10 45 -15 63 -15 64 0 2 17 6 33 9 37 1 1 4 11 5 22
2 11 6 36 10 55 7 32 12 62 14 83 1 4 9 7 19 7 41 0 81 63 85 133 1 21 5 37 8
37 3 0 6 6 6 13 0 20 13 106 18 119 2 7 7 24 9 38 3 14 7 34 9 45 3 11 8 40
12 65 4 25 9 54 11 65 14 67 13 109 -3 136 -16 26 -26 34 -36 27 -9 -7 -36 25
-30 35 16 26 2 168 -22 238 -67 190 -246 280 -475 239 -64 -12 -184 -52 -204
-69 -6 -5 -15 -10 -21 -12 -55 -14 -222 -163 -285 -254 -19 -27 -40 -55 -46
-62 -18 -19 -90 -163 -108 -215 -34 -103 -53 -243 -49 -378 4 -146 3 -136 14
-196 5 -28 12 -62 14 -76 12 -62 59 -208 86 -266 80 -168 250 -367 407 -480
17 -12 36 -22 42 -22 5 0 10 -4 10 -8 0 -10 126 -70 158 -77 12 -2 26 -6 30
-9 9 -5 46 -13 97 -21 17 -3 41 -7 55 -11 14 -3 50 -7 80 -9 30 -2 57 -4 60
-5 29 -10 301 5 385 21 65 13 116 21 138 22 9 1 17 6 17 11 0 5 3 7 6 4 3 -3
33 3 67 14 34 10 69 21 77 23 15 3 49 16 98 37 15 6 30 12 34 12 13 2 183 91
186 99 2 4 10 7 17 7 7 0 15 4 17 8 2 4 21 19 43 32 66 40 275 226 275 244 0
2 14 20 31 39 17 19 30 38 29 42 -1 4 3 11 8 14 13 8 82 118 82 131 0 5 5 10
10 10 6 0 10 4 10 9 0 5 15 42 34 83 32 69 63 147 64 158 1 3 3 12 6 20 15 48
30 96 32 105 1 6 9 39 18 75 8 36 17 79 20 95 3 17 8 40 10 51 13 62 18 107
31 254 5 55 6 324 1 365 -2 17 -7 64 -11 105 -4 41 -8 77 -10 80 -2 3 -6 30
-10 60 -4 30 -9 58 -11 62 -2 4 -9 28 -14 55 -6 26 -13 59 -16 73 -14 64 -82
246 -130 347 -57 122 -175 309 -245 387 -67 76 -179 187 -228 226 -24 19 -48
40 -55 45 -90 80 -358 226 -531 290 -38 14 -77 29 -85 34 -8 4 -39 14 -67 20
-29 7 -53 16 -53 21 0 4 -15 11 -32 15 -18 4 -37 9 -43 10 -5 1 -30 12 -55 23
-51 23 -80 34 -96 37 -20 5 -278 135 -294 149 -8 8 -28 21 -45 29 -65 34 -203
153 -284 245 -147 169 -234 368 -277 632 -2 14 -6 76 -9 138 -2 62 -7 117 -10
121 -12 21 24 31 86 24 128 -15 509 -7 649 12 19 3 58 7 85 10 56 6 75 9 195
31 47 9 96 18 109 21 14 2 28 6 33 9 5 3 20 7 34 10 102 18 265 92 332 150 49
42 121 134 144 184 35 76 48 113 48 136 0 12 4 25 8 28 14 8 11 190 -4 245
-37 143 -155 314 -284 410 -19 14 -37 29 -40 32 -3 4 -32 20 -65 37 -79 39
-135 57 -280 88 -27 6 -222 14 -226 9z m226 -253 c168 -36 278 -109 374 -250
64 -95 81 -180 58 -302 -12 -68 -104 -187 -167 -217 -37 -18 -103 -44 -120
-48 -8 -2 -44 -11 -80 -20 -36 -9 -74 -19 -85 -21 -11 -2 -31 -7 -45 -10 -14
-2 -36 -7 -50 -9 -14 -2 -41 -7 -60 -10 -19 -4 -53 -9 -75 -11 -22 -2 -58 -6
-80 -9 -224 -26 -643 -26 -684 -1 -8 5 0 63 13 101 2 6 5 15 6 20 22 80 90
247 120 295 5 8 25 43 45 78 20 34 40 62 45 62 5 0 11 8 14 18 8 25 130 151
195 202 89 68 211 122 311 137 19 3 36 6 38 7 6 7 183 -3 227 -12z"/>
</g>
</svg>
